<svg class="icon" style="width: 1em; height: 1em;vertical-align: middle;fill: currentColor;overflow: hidden;" viewBox="0 0 1024 1024" version="1.1" xmlns="http://www.w3.org/2000/svg" p-id="648"><path d="M626.5 193.4c-126.8 25.4-137.2-26.5-264-1.1-35.8 7.2-66 21.7-87.5 34.7-21.6 13.1-32.8 38.2-27.9 63l53.2 267.2c7.6 37.9 48.5 58.4 83.7 42.5 16.5-7.5 35.6-14.2 56.5-18.4 126.8-25.4 137.2 26.5 264 1.1 45.2-9.1 87.8-31.7 116.1-49.5 21.1-13.2 31.7-38.1 26.8-62.5l-53.3-265.5c-7.8-38.8-50.5-59.7-85.7-41.7-23.9 12.6-52.3 24.3-81.9 30.2z m0 0" fill="#FF6994" p-id="649"></path><path d="M416.6 918.1l-20.5 5.4c-19.7 5.2-40-6.7-45.2-26.3L182.3 257.4c-5.2-19.7 6.7-40 26.3-45.2l20.5-5.4c19.7-5.2 40 6.7 45.2 26.3l168.6 639.8c5.2 19.7-6.7 40-26.3 45.2z" fill="#FFC152" p-id="650"></path><path d="M335.4 582.9l-5.9 1.5c-8.3 2.2-17-2.9-19.1-11.2l-77.6-299.4c-2.2-8.3 2.9-17 11.2-19.1l5.9-1.5c8.3-2.2 17 2.9 19.1 11.2l77.6 299.4c2.2 8.4-2.9 17-11.2 19.1z" fill="#FFFFFF" p-id="651"></path></svg>