<svg width="1024" height="1024" xmlns="http://www.w3.org/2000/svg" class="icon">

 <g>
  <title>background</title>
  <rect fill="none" id="canvas_background" height="402" width="582" y="-1" x="-1"/>
 </g>
 <g>
  <title>Layer 1</title>
  <defs>
   <style type="text/css"/>
  </defs>
  <g stroke="null" id="svg_19">
   <path stroke="null" id="svg_16" fill="#FF6994" d="m682.396175,51.558335c-193.483702,33.867164 -209.353028,-35.333852 -402.836731,-1.466688c-54.627102,9.600141 -100.709183,28.933758 -133.515962,46.267346c-32.959369,17.466923 -50.049412,50.934081 -42.572518,84.001233l81.177705,356.271898c11.596815,50.534075 74.00599,77.86781 127.717554,56.667499c25.177296,-10.000147 54.321923,-18.933611 86.213164,-24.533694c193.483702,-33.867164 209.353028,35.333852 402.836731,1.466688c68.970531,-12.133512 133.973731,-42.267287 177.156608,-66.000969c32.196421,-17.600258 48.370926,-50.800746 40.894032,-83.334557l-81.330294,-354.005198c-11.901994,-51.734093 -77.057784,-79.601169 -130.769348,-55.600816c-36.468931,16.800247 -79.804398,32.400476 -124.97094,40.267258zm0,0"/>
   <path stroke="null" id="svg_17" fill="#FFC152" d="m362.110457,1017.839191l-31.280882,7.200106c-30.060165,6.933435 -61.035868,-8.933465 -68.970531,-35.067182l-257.266185,-853.079193c-7.934663,-26.267052 10.223508,-53.334117 40.131083,-60.267552l31.280882,-7.200106c30.060165,-6.933435 61.035868,8.933465 68.970531,35.067182l257.266185,853.079193c7.934663,26.267052 -10.223508,53.334117 -40.131083,60.267552z"/>
   <path stroke="null" id="svg_18" fill="#FFFFFF" d="m238.207644,570.899295l-9.002791,2.000029c-12.664943,2.933376 -25.940244,-3.866723 -29.144627,-14.933553l-118.409584,-399.205862c-3.356973,-11.066829 4.4251,-22.667 17.090043,-25.467041l9.002791,-2.000029c12.664943,-2.933376 25.940244,3.866723 29.144627,14.933553l118.409584,399.205862c3.356973,11.200164 -4.4251,22.667 -17.090043,25.467041z"/>
  </g>
  <g stroke="null" id="svg_12">
   <path stroke="null" id="svg_11" fill="#d81e06" d="m914.130535,899.793686c-44.521305,14.614197 -95.102679,5.987761 -129.241066,-22.056611l-278.157155,-232.643124l-278.035954,232.643124c-47.389738,39.647774 -124.191009,39.647774 -171.580746,0c-47.389738,-39.613945 -47.389738,-103.923175 0,-143.53712l278.116754,-232.676953l-278.116754,-232.643124c-47.389738,-39.647774 -47.389738,-103.923175 0,-143.570949c47.389738,-39.647774 124.191009,-39.647774 171.580746,0l278.035954,232.744611l278.157155,-232.744611c47.59174,-38.429924 123.261798,-37.888658 170.045529,1.285508c46.783731,39.174166 47.430138,102.468521 1.414016,142.285441l-278.035954,232.643124l278.035954,232.676953c23.83627,20.060691 36.441213,47.631455 34.663593,75.912632c-2.262426,39.952236 -32.360767,75.066903 -76.882072,89.6811"/>
  </g>
 </g>
</svg>